<mxfile host="Electron" modified="2024-02-15T04:51:16.477Z" agent="Mozilla/5.0 (Macintosh; Intel Mac OS X 10_15_7) AppleWebKit/537.36 (KHTML, like Gecko) draw.io/21.4.0 Chrome/112.0.5615.204 Electron/24.5.1 Safari/537.36" etag="ezZFStDumKneZLip4jjB" version="21.4.0" type="device" pages="3">
  <diagram name="Page-1" id="unadl_GVOWW1tjvmzQ0x">
    <mxGraphModel dx="1396" dy="920" grid="1" gridSize="10" guides="1" tooltips="1" connect="1" arrows="1" fold="1" page="1" pageScale="1" pageWidth="827" pageHeight="1169" math="0" shadow="0">
      <root>
        <mxCell id="0" />
        <mxCell id="1" parent="0" />
        <mxCell id="KZvV8Jq44UNV5nZChpxl-51" value="" style="rounded=0;whiteSpace=wrap;html=1;fillColor=#f5f5f5;strokeColor=#666666;gradientColor=#b3b3b3;" vertex="1" parent="1">
          <mxGeometry x="100" y="240" width="990" height="570" as="geometry" />
        </mxCell>
        <mxCell id="KZvV8Jq44UNV5nZChpxl-56" value="" style="rounded=0;whiteSpace=wrap;html=1;" vertex="1" parent="1">
          <mxGeometry x="830" y="280" width="230" height="440" as="geometry" />
        </mxCell>
        <mxCell id="KZvV8Jq44UNV5nZChpxl-55" value="" style="rounded=0;whiteSpace=wrap;html=1;" vertex="1" parent="1">
          <mxGeometry x="350" y="280" width="430" height="440" as="geometry" />
        </mxCell>
        <mxCell id="KZvV8Jq44UNV5nZChpxl-4" value="" style="rounded=0;whiteSpace=wrap;html=1;fillColor=#e1d5e7;strokeColor=#9673a6;" vertex="1" parent="1">
          <mxGeometry x="385" y="480" width="170" height="200" as="geometry" />
        </mxCell>
        <mxCell id="KZvV8Jq44UNV5nZChpxl-3" value="" style="rounded=0;whiteSpace=wrap;html=1;fillColor=#fff2cc;strokeColor=#d6b656;" vertex="1" parent="1">
          <mxGeometry x="404" y="540" width="136" height="120" as="geometry" />
        </mxCell>
        <mxCell id="KZvV8Jq44UNV5nZChpxl-1" value="apache" style="rounded=0;whiteSpace=wrap;html=1;fontSize=17;fillColor=#dae8fc;strokeColor=#6c8ebf;" vertex="1" parent="1">
          <mxGeometry x="418" y="600" width="110" height="50" as="geometry" />
        </mxCell>
        <mxCell id="KZvV8Jq44UNV5nZChpxl-7" style="edgeStyle=orthogonalEdgeStyle;rounded=0;orthogonalLoop=1;jettySize=auto;html=1;entryX=0.108;entryY=0.475;entryDx=0;entryDy=0;entryPerimeter=0;" edge="1" parent="1" source="KZvV8Jq44UNV5nZChpxl-5" target="KZvV8Jq44UNV5nZChpxl-6">
          <mxGeometry relative="1" as="geometry" />
        </mxCell>
        <mxCell id="KZvV8Jq44UNV5nZChpxl-5" value="Browser" style="rounded=0;whiteSpace=wrap;html=1;" vertex="1" parent="1">
          <mxGeometry x="240" y="62.5" width="74" height="51" as="geometry" />
        </mxCell>
        <mxCell id="KZvV8Jq44UNV5nZChpxl-8" style="edgeStyle=orthogonalEdgeStyle;rounded=0;orthogonalLoop=1;jettySize=auto;html=1;" edge="1" parent="1" source="KZvV8Jq44UNV5nZChpxl-6" target="KZvV8Jq44UNV5nZChpxl-66">
          <mxGeometry relative="1" as="geometry">
            <mxPoint x="524" y="90.00000000000011" as="targetPoint" />
          </mxGeometry>
        </mxCell>
        <mxCell id="KZvV8Jq44UNV5nZChpxl-78" style="edgeStyle=orthogonalEdgeStyle;rounded=0;orthogonalLoop=1;jettySize=auto;html=1;entryX=0.5;entryY=0;entryDx=0;entryDy=0;" edge="1" parent="1" source="KZvV8Jq44UNV5nZChpxl-6" target="KZvV8Jq44UNV5nZChpxl-71">
          <mxGeometry relative="1" as="geometry" />
        </mxCell>
        <mxCell id="KZvV8Jq44UNV5nZChpxl-6" value="network" style="ellipse;shape=cloud;whiteSpace=wrap;html=1;" vertex="1" parent="1">
          <mxGeometry x="364" y="50" width="120" height="80" as="geometry" />
        </mxCell>
        <mxCell id="KZvV8Jq44UNV5nZChpxl-9" value="Pod" style="text;html=1;strokeColor=none;fillColor=none;align=center;verticalAlign=middle;whiteSpace=wrap;rounded=0;fontStyle=1;fontSize=17;" vertex="1" parent="1">
          <mxGeometry x="440" y="690" width="60" height="30" as="geometry" />
        </mxCell>
        <mxCell id="KZvV8Jq44UNV5nZChpxl-11" value="" style="shape=cylinder3;whiteSpace=wrap;html=1;boundedLbl=1;backgroundOutline=1;size=3.482758620689708;fillColor=#1ba1e2;strokeColor=#006EAF;fontColor=#ffffff;" vertex="1" parent="1">
          <mxGeometry x="470.25" y="549" width="5.5" height="30" as="geometry" />
        </mxCell>
        <mxCell id="KZvV8Jq44UNV5nZChpxl-2" value="80" style="ellipse;whiteSpace=wrap;html=1;aspect=fixed;fillColor=#d80073;fontColor=#ffffff;strokeColor=#A50040;" vertex="1" parent="1">
          <mxGeometry x="458" y="579" width="30" height="30" as="geometry" />
        </mxCell>
        <mxCell id="KZvV8Jq44UNV5nZChpxl-14" value="" style="shape=cylinder3;whiteSpace=wrap;html=1;boundedLbl=1;backgroundOutline=1;size=3.482758620689708;fillColor=#1ba1e2;strokeColor=#006EAF;fontColor=#ffffff;" vertex="1" parent="1">
          <mxGeometry x="470.25" y="490" width="5.5" height="50" as="geometry" />
        </mxCell>
        <mxCell id="KZvV8Jq44UNV5nZChpxl-10" value="80" style="ellipse;whiteSpace=wrap;html=1;aspect=fixed;fillColor=#d80073;fontColor=#ffffff;strokeColor=#A50040;" vertex="1" parent="1">
          <mxGeometry x="458" y="530" width="30" height="30" as="geometry" />
        </mxCell>
        <mxCell id="KZvV8Jq44UNV5nZChpxl-13" value="80" style="ellipse;whiteSpace=wrap;html=1;aspect=fixed;fillColor=#d80073;fontColor=#ffffff;strokeColor=#A50040;" vertex="1" parent="1">
          <mxGeometry x="458" y="465" width="30" height="30" as="geometry" />
        </mxCell>
        <mxCell id="KZvV8Jq44UNV5nZChpxl-16" value="" style="rounded=0;whiteSpace=wrap;html=1;fillColor=#e1d5e7;strokeColor=#9673a6;" vertex="1" parent="1">
          <mxGeometry x="590" y="480" width="170" height="200" as="geometry" />
        </mxCell>
        <mxCell id="KZvV8Jq44UNV5nZChpxl-17" value="" style="rounded=0;whiteSpace=wrap;html=1;fillColor=#fff2cc;strokeColor=#d6b656;" vertex="1" parent="1">
          <mxGeometry x="609" y="540" width="136" height="120" as="geometry" />
        </mxCell>
        <mxCell id="KZvV8Jq44UNV5nZChpxl-18" value="apache" style="rounded=0;whiteSpace=wrap;html=1;fontSize=17;fillColor=#dae8fc;strokeColor=#6c8ebf;" vertex="1" parent="1">
          <mxGeometry x="623" y="600" width="110" height="50" as="geometry" />
        </mxCell>
        <mxCell id="KZvV8Jq44UNV5nZChpxl-19" value="Pod" style="text;html=1;strokeColor=none;fillColor=none;align=center;verticalAlign=middle;whiteSpace=wrap;rounded=0;fontStyle=1;fontSize=17;" vertex="1" parent="1">
          <mxGeometry x="645" y="690" width="60" height="30" as="geometry" />
        </mxCell>
        <mxCell id="KZvV8Jq44UNV5nZChpxl-20" value="" style="shape=cylinder3;whiteSpace=wrap;html=1;boundedLbl=1;backgroundOutline=1;size=3.482758620689708;fillColor=#1ba1e2;strokeColor=#006EAF;fontColor=#ffffff;" vertex="1" parent="1">
          <mxGeometry x="675.25" y="549" width="5.5" height="30" as="geometry" />
        </mxCell>
        <mxCell id="KZvV8Jq44UNV5nZChpxl-21" value="80" style="ellipse;whiteSpace=wrap;html=1;aspect=fixed;fillColor=#d80073;fontColor=#ffffff;strokeColor=#A50040;" vertex="1" parent="1">
          <mxGeometry x="663" y="579" width="30" height="30" as="geometry" />
        </mxCell>
        <mxCell id="KZvV8Jq44UNV5nZChpxl-22" value="" style="shape=cylinder3;whiteSpace=wrap;html=1;boundedLbl=1;backgroundOutline=1;size=3.482758620689708;fillColor=#1ba1e2;strokeColor=#006EAF;fontColor=#ffffff;" vertex="1" parent="1">
          <mxGeometry x="675.25" y="490" width="5.5" height="50" as="geometry" />
        </mxCell>
        <mxCell id="KZvV8Jq44UNV5nZChpxl-23" value="80" style="ellipse;whiteSpace=wrap;html=1;aspect=fixed;fillColor=#d80073;fontColor=#ffffff;strokeColor=#A50040;" vertex="1" parent="1">
          <mxGeometry x="663" y="530" width="30" height="30" as="geometry" />
        </mxCell>
        <mxCell id="KZvV8Jq44UNV5nZChpxl-24" value="80" style="ellipse;whiteSpace=wrap;html=1;aspect=fixed;fillColor=#d80073;fontColor=#ffffff;strokeColor=#A50040;" vertex="1" parent="1">
          <mxGeometry x="663" y="465" width="30" height="30" as="geometry" />
        </mxCell>
        <mxCell id="KZvV8Jq44UNV5nZChpxl-25" value="" style="rounded=0;whiteSpace=wrap;html=1;fillColor=#e1d5e7;strokeColor=#9673a6;" vertex="1" parent="1">
          <mxGeometry x="865" y="480" width="170" height="200" as="geometry" />
        </mxCell>
        <mxCell id="KZvV8Jq44UNV5nZChpxl-26" value="" style="rounded=0;whiteSpace=wrap;html=1;fillColor=#fff2cc;strokeColor=#d6b656;" vertex="1" parent="1">
          <mxGeometry x="884" y="540" width="136" height="120" as="geometry" />
        </mxCell>
        <mxCell id="KZvV8Jq44UNV5nZChpxl-27" value="apache" style="rounded=0;whiteSpace=wrap;html=1;fontSize=17;fillColor=#dae8fc;strokeColor=#6c8ebf;" vertex="1" parent="1">
          <mxGeometry x="898" y="600" width="110" height="50" as="geometry" />
        </mxCell>
        <mxCell id="KZvV8Jq44UNV5nZChpxl-28" value="Pod" style="text;html=1;strokeColor=none;fillColor=none;align=center;verticalAlign=middle;whiteSpace=wrap;rounded=0;fontStyle=1;fontSize=17;" vertex="1" parent="1">
          <mxGeometry x="923" y="690" width="60" height="30" as="geometry" />
        </mxCell>
        <mxCell id="KZvV8Jq44UNV5nZChpxl-29" value="" style="shape=cylinder3;whiteSpace=wrap;html=1;boundedLbl=1;backgroundOutline=1;size=3.482758620689708;fillColor=#1ba1e2;strokeColor=#006EAF;fontColor=#ffffff;" vertex="1" parent="1">
          <mxGeometry x="950.25" y="554.5" width="5.5" height="30" as="geometry" />
        </mxCell>
        <mxCell id="KZvV8Jq44UNV5nZChpxl-30" value="80" style="ellipse;whiteSpace=wrap;html=1;aspect=fixed;fillColor=#d80073;fontColor=#ffffff;strokeColor=#A50040;" vertex="1" parent="1">
          <mxGeometry x="938" y="579" width="30" height="30" as="geometry" />
        </mxCell>
        <mxCell id="KZvV8Jq44UNV5nZChpxl-31" value="" style="shape=cylinder3;whiteSpace=wrap;html=1;boundedLbl=1;backgroundOutline=1;size=3.482758620689708;fillColor=#1ba1e2;strokeColor=#006EAF;fontColor=#ffffff;" vertex="1" parent="1">
          <mxGeometry x="950.25" y="490" width="5.5" height="50" as="geometry" />
        </mxCell>
        <mxCell id="KZvV8Jq44UNV5nZChpxl-32" value="80" style="ellipse;whiteSpace=wrap;html=1;aspect=fixed;fillColor=#d80073;fontColor=#ffffff;strokeColor=#A50040;" vertex="1" parent="1">
          <mxGeometry x="938" y="530" width="30" height="30" as="geometry" />
        </mxCell>
        <mxCell id="KZvV8Jq44UNV5nZChpxl-33" value="80" style="ellipse;whiteSpace=wrap;html=1;aspect=fixed;fillColor=#d80073;fontColor=#ffffff;strokeColor=#A50040;" vertex="1" parent="1">
          <mxGeometry x="938" y="465" width="30" height="30" as="geometry" />
        </mxCell>
        <mxCell id="KZvV8Jq44UNV5nZChpxl-35" style="edgeStyle=orthogonalEdgeStyle;rounded=0;orthogonalLoop=1;jettySize=auto;html=1;entryX=0.217;entryY=0.007;entryDx=0;entryDy=0;entryPerimeter=0;" edge="1" parent="1" source="KZvV8Jq44UNV5nZChpxl-34" target="KZvV8Jq44UNV5nZChpxl-4">
          <mxGeometry relative="1" as="geometry" />
        </mxCell>
        <mxCell id="KZvV8Jq44UNV5nZChpxl-36" style="edgeStyle=orthogonalEdgeStyle;rounded=0;orthogonalLoop=1;jettySize=auto;html=1;entryX=0.193;entryY=-0.002;entryDx=0;entryDy=0;entryPerimeter=0;" edge="1" parent="1" source="KZvV8Jq44UNV5nZChpxl-34" target="KZvV8Jq44UNV5nZChpxl-16">
          <mxGeometry relative="1" as="geometry" />
        </mxCell>
        <mxCell id="KZvV8Jq44UNV5nZChpxl-47" value="app: myapp" style="rounded=0;whiteSpace=wrap;html=1;fillColor=#60a917;fontColor=#ffffff;strokeColor=#2D7600;" vertex="1" parent="1">
          <mxGeometry x="360" y="495" width="75" height="30" as="geometry" />
        </mxCell>
        <mxCell id="KZvV8Jq44UNV5nZChpxl-48" value="app: myapp" style="rounded=0;whiteSpace=wrap;html=1;fillColor=#60a917;fontColor=#ffffff;strokeColor=#2D7600;" vertex="1" parent="1">
          <mxGeometry x="570" y="495" width="75" height="30" as="geometry" />
        </mxCell>
        <mxCell id="KZvV8Jq44UNV5nZChpxl-49" value="app: myapp" style="rounded=0;whiteSpace=wrap;html=1;fillColor=#60a917;fontColor=#ffffff;strokeColor=#2D7600;" vertex="1" parent="1">
          <mxGeometry x="845" y="495" width="75" height="30" as="geometry" />
        </mxCell>
        <mxCell id="KZvV8Jq44UNV5nZChpxl-52" value="Cluster (10.244.0.0/16)" style="text;html=1;strokeColor=none;fillColor=none;align=center;verticalAlign=middle;whiteSpace=wrap;rounded=0;fontStyle=1;fontSize=17;" vertex="1" parent="1">
          <mxGeometry x="475" y="820" width="265" height="30" as="geometry" />
        </mxCell>
        <mxCell id="KZvV8Jq44UNV5nZChpxl-57" value="" style="rounded=0;whiteSpace=wrap;html=1;" vertex="1" parent="1">
          <mxGeometry x="150" y="280" width="170" height="440" as="geometry" />
        </mxCell>
        <mxCell id="KZvV8Jq44UNV5nZChpxl-58" value="Master&lt;br&gt;(192.168.1.29)" style="text;html=1;strokeColor=none;fillColor=none;align=center;verticalAlign=middle;whiteSpace=wrap;rounded=0;fontStyle=1;fontSize=17;" vertex="1" parent="1">
          <mxGeometry x="205" y="740" width="60" height="30" as="geometry" />
        </mxCell>
        <mxCell id="KZvV8Jq44UNV5nZChpxl-59" value="Worker1&lt;br&gt;(192.168.1.30)" style="text;html=1;strokeColor=none;fillColor=none;align=center;verticalAlign=middle;whiteSpace=wrap;rounded=0;fontStyle=1;fontSize=17;" vertex="1" parent="1">
          <mxGeometry x="535" y="740" width="60" height="30" as="geometry" />
        </mxCell>
        <mxCell id="KZvV8Jq44UNV5nZChpxl-60" value="Worker2&lt;br&gt;(192.168.1.31)" style="text;html=1;strokeColor=none;fillColor=none;align=center;verticalAlign=middle;whiteSpace=wrap;rounded=0;fontStyle=1;fontSize=17;" vertex="1" parent="1">
          <mxGeometry x="920" y="740" width="60" height="30" as="geometry" />
        </mxCell>
        <mxCell id="KZvV8Jq44UNV5nZChpxl-34" value="ReplicaSet" style="rounded=0;whiteSpace=wrap;html=1;fillColor=#a20025;fontColor=#ffffff;strokeColor=#6F0000;" vertex="1" parent="1">
          <mxGeometry x="180" y="424" width="105" height="41" as="geometry" />
        </mxCell>
        <mxCell id="KZvV8Jq44UNV5nZChpxl-37" style="edgeStyle=orthogonalEdgeStyle;rounded=0;orthogonalLoop=1;jettySize=auto;html=1;entryX=0.199;entryY=-0.016;entryDx=0;entryDy=0;entryPerimeter=0;" edge="1" parent="1" source="KZvV8Jq44UNV5nZChpxl-34" target="KZvV8Jq44UNV5nZChpxl-25">
          <mxGeometry relative="1" as="geometry" />
        </mxCell>
        <mxCell id="KZvV8Jq44UNV5nZChpxl-62" value="" style="rounded=0;whiteSpace=wrap;html=1;fillColor=#647687;fontColor=#ffffff;strokeColor=#314354;fontSize=19;" vertex="1" parent="1">
          <mxGeometry x="180" y="340" width="870" height="40" as="geometry" />
        </mxCell>
        <mxCell id="KZvV8Jq44UNV5nZChpxl-70" value="Service" style="text;html=1;align=center;verticalAlign=middle;whiteSpace=wrap;rounded=0;fontStyle=1;fontSize=17;fontColor=#FFFFFF;" vertex="1" parent="1">
          <mxGeometry x="204" y="345" width="60" height="30" as="geometry" />
        </mxCell>
        <mxCell id="KZvV8Jq44UNV5nZChpxl-72" value="" style="shape=cylinder3;whiteSpace=wrap;html=1;boundedLbl=1;backgroundOutline=1;size=3.482758620689708;fillColor=#1ba1e2;strokeColor=#006EAF;fontColor=#ffffff;" vertex="1" parent="1">
          <mxGeometry x="562.25" y="290" width="5.5" height="40" as="geometry" />
        </mxCell>
        <mxCell id="KZvV8Jq44UNV5nZChpxl-73" value="" style="shape=cylinder3;whiteSpace=wrap;html=1;boundedLbl=1;backgroundOutline=1;size=3.482758620689708;fillColor=#1ba1e2;strokeColor=#006EAF;fontColor=#ffffff;" vertex="1" parent="1">
          <mxGeometry x="949.25" y="290" width="5.5" height="40" as="geometry" />
        </mxCell>
        <mxCell id="KZvV8Jq44UNV5nZChpxl-71" value="32800" style="ellipse;whiteSpace=wrap;html=1;aspect=fixed;fillColor=#d80073;fontColor=#ffffff;strokeColor=#A50040;" vertex="1" parent="1">
          <mxGeometry x="927.5" y="252.5" width="45" height="45" as="geometry" />
        </mxCell>
        <mxCell id="KZvV8Jq44UNV5nZChpxl-66" value="32800" style="ellipse;whiteSpace=wrap;html=1;aspect=fixed;fillColor=#d80073;fontColor=#ffffff;strokeColor=#A50040;" vertex="1" parent="1">
          <mxGeometry x="542.5" y="252.5" width="45" height="45" as="geometry" />
        </mxCell>
        <mxCell id="KZvV8Jq44UNV5nZChpxl-74" value="" style="shape=cylinder3;whiteSpace=wrap;html=1;boundedLbl=1;backgroundOutline=1;size=3.482758620689708;fillColor=#1ba1e2;strokeColor=#006EAF;fontColor=#ffffff;" vertex="1" parent="1">
          <mxGeometry x="674.25" y="400" width="5.5" height="65" as="geometry" />
        </mxCell>
        <mxCell id="KZvV8Jq44UNV5nZChpxl-75" value="" style="shape=cylinder3;whiteSpace=wrap;html=1;boundedLbl=1;backgroundOutline=1;size=3.482758620689708;fillColor=#1ba1e2;strokeColor=#006EAF;fontColor=#ffffff;" vertex="1" parent="1">
          <mxGeometry x="950.25" y="400" width="5.5" height="65" as="geometry" />
        </mxCell>
        <mxCell id="KZvV8Jq44UNV5nZChpxl-76" value="" style="shape=cylinder3;whiteSpace=wrap;html=1;boundedLbl=1;backgroundOutline=1;size=3.482758620689708;fillColor=#1ba1e2;strokeColor=#006EAF;fontColor=#ffffff;" vertex="1" parent="1">
          <mxGeometry x="470.25" y="400" width="5.5" height="65" as="geometry" />
        </mxCell>
        <mxCell id="KZvV8Jq44UNV5nZChpxl-79" value="R" style="ellipse;whiteSpace=wrap;html=1;fillColor=#0050ef;fontColor=#ffffff;strokeColor=#001DBC;" vertex="1" parent="1">
          <mxGeometry x="449" y="160" width="26" height="30" as="geometry" />
        </mxCell>
        <mxCell id="KZvV8Jq44UNV5nZChpxl-80" value="" style="shape=cylinder3;whiteSpace=wrap;html=1;boundedLbl=1;backgroundOutline=1;size=3.482758620689708;fillColor=#1ba1e2;strokeColor=#006EAF;fontColor=#ffffff;" vertex="1" parent="1">
          <mxGeometry x="702.25" y="344" width="5.5" height="32" as="geometry" />
        </mxCell>
        <mxCell id="KZvV8Jq44UNV5nZChpxl-68" value="80" style="rounded=0;whiteSpace=wrap;html=1;fillColor=#d80073;fontColor=#ffffff;strokeColor=#A50040;" vertex="1" parent="1">
          <mxGeometry x="375" y="320" width="660" height="30" as="geometry" />
        </mxCell>
        <mxCell id="KZvV8Jq44UNV5nZChpxl-69" value="80" style="rounded=0;whiteSpace=wrap;html=1;fillColor=#d80073;fontColor=#ffffff;strokeColor=#A50040;" vertex="1" parent="1">
          <mxGeometry x="375" y="370" width="660" height="30" as="geometry" />
        </mxCell>
        <mxCell id="KZvV8Jq44UNV5nZChpxl-83" style="edgeStyle=orthogonalEdgeStyle;rounded=0;orthogonalLoop=1;jettySize=auto;html=1;entryX=1;entryY=0.5;entryDx=0;entryDy=0;" edge="1" parent="1" source="KZvV8Jq44UNV5nZChpxl-81" target="KZvV8Jq44UNV5nZChpxl-66">
          <mxGeometry relative="1" as="geometry">
            <Array as="points">
              <mxPoint x="753" y="200" />
              <mxPoint x="710" y="200" />
              <mxPoint x="710" y="270" />
              <mxPoint x="587" y="270" />
            </Array>
          </mxGeometry>
        </mxCell>
        <mxCell id="KZvV8Jq44UNV5nZChpxl-84" style="edgeStyle=orthogonalEdgeStyle;rounded=0;orthogonalLoop=1;jettySize=auto;html=1;entryX=0;entryY=0.5;entryDx=0;entryDy=0;" edge="1" parent="1" source="KZvV8Jq44UNV5nZChpxl-81" target="KZvV8Jq44UNV5nZChpxl-71">
          <mxGeometry relative="1" as="geometry">
            <Array as="points">
              <mxPoint x="753" y="200" />
              <mxPoint x="790" y="200" />
              <mxPoint x="790" y="270" />
              <mxPoint x="927" y="270" />
            </Array>
          </mxGeometry>
        </mxCell>
        <mxCell id="KZvV8Jq44UNV5nZChpxl-81" value="Node Port" style="rounded=0;whiteSpace=wrap;html=1;" vertex="1" parent="1">
          <mxGeometry x="693" y="140" width="120" height="40" as="geometry" />
        </mxCell>
        <mxCell id="KZvV8Jq44UNV5nZChpxl-86" style="edgeStyle=orthogonalEdgeStyle;rounded=0;orthogonalLoop=1;jettySize=auto;html=1;" edge="1" parent="1" source="KZvV8Jq44UNV5nZChpxl-85" target="KZvV8Jq44UNV5nZChpxl-68">
          <mxGeometry relative="1" as="geometry">
            <Array as="points">
              <mxPoint x="1110" y="315" />
              <mxPoint x="1110" y="335" />
            </Array>
          </mxGeometry>
        </mxCell>
        <mxCell id="KZvV8Jq44UNV5nZChpxl-85" value="port" style="rounded=0;whiteSpace=wrap;html=1;" vertex="1" parent="1">
          <mxGeometry x="1150" y="297.5" width="80" height="35" as="geometry" />
        </mxCell>
        <mxCell id="KZvV8Jq44UNV5nZChpxl-88" style="edgeStyle=orthogonalEdgeStyle;rounded=0;orthogonalLoop=1;jettySize=auto;html=1;" edge="1" parent="1" source="KZvV8Jq44UNV5nZChpxl-87" target="KZvV8Jq44UNV5nZChpxl-69">
          <mxGeometry relative="1" as="geometry">
            <Array as="points">
              <mxPoint x="1110" y="398" />
              <mxPoint x="1110" y="385" />
            </Array>
          </mxGeometry>
        </mxCell>
        <mxCell id="KZvV8Jq44UNV5nZChpxl-87" value="targetPort" style="rounded=0;whiteSpace=wrap;html=1;" vertex="1" parent="1">
          <mxGeometry x="1150" y="380" width="80" height="35" as="geometry" />
        </mxCell>
      </root>
    </mxGraphModel>
  </diagram>
  <diagram id="nfQpnulOzPcMWLj4qCpN" name="Page-2">
    <mxGraphModel dx="1256" dy="828" grid="1" gridSize="10" guides="1" tooltips="1" connect="1" arrows="1" fold="1" page="1" pageScale="1" pageWidth="827" pageHeight="1169" math="0" shadow="0">
      <root>
        <mxCell id="0" />
        <mxCell id="1" parent="0" />
        <mxCell id="Gh85WNM3P2DfNcLuEIeP-27" style="edgeStyle=orthogonalEdgeStyle;rounded=0;orthogonalLoop=1;jettySize=auto;html=1;entryX=0.5;entryY=0;entryDx=0;entryDy=0;" edge="1" parent="1" source="Gh85WNM3P2DfNcLuEIeP-1" target="Gh85WNM3P2DfNcLuEIeP-23">
          <mxGeometry relative="1" as="geometry">
            <Array as="points">
              <mxPoint x="193" y="380" />
              <mxPoint x="415" y="380" />
            </Array>
          </mxGeometry>
        </mxCell>
        <mxCell id="Gh85WNM3P2DfNcLuEIeP-51" style="edgeStyle=orthogonalEdgeStyle;rounded=0;orthogonalLoop=1;jettySize=auto;html=1;entryX=0.479;entryY=-0.006;entryDx=0;entryDy=0;entryPerimeter=0;" edge="1" parent="1" source="Gh85WNM3P2DfNcLuEIeP-1" target="Gh85WNM3P2DfNcLuEIeP-37">
          <mxGeometry relative="1" as="geometry">
            <Array as="points">
              <mxPoint x="470" y="290" />
              <mxPoint x="470" y="390" />
              <mxPoint x="759" y="390" />
            </Array>
          </mxGeometry>
        </mxCell>
        <mxCell id="Gh85WNM3P2DfNcLuEIeP-1" value="" style="rounded=0;whiteSpace=wrap;html=1;" vertex="1" parent="1">
          <mxGeometry x="40" y="240" width="306" height="100" as="geometry" />
        </mxCell>
        <mxCell id="Gh85WNM3P2DfNcLuEIeP-14" style="edgeStyle=orthogonalEdgeStyle;rounded=0;orthogonalLoop=1;jettySize=auto;html=1;entryX=0.5;entryY=0;entryDx=0;entryDy=0;" edge="1" parent="1" source="Gh85WNM3P2DfNcLuEIeP-2" target="Gh85WNM3P2DfNcLuEIeP-5">
          <mxGeometry relative="1" as="geometry" />
        </mxCell>
        <mxCell id="Gh85WNM3P2DfNcLuEIeP-15" style="edgeStyle=orthogonalEdgeStyle;rounded=0;orthogonalLoop=1;jettySize=auto;html=1;" edge="1" parent="1" source="Gh85WNM3P2DfNcLuEIeP-2" target="Gh85WNM3P2DfNcLuEIeP-8">
          <mxGeometry relative="1" as="geometry" />
        </mxCell>
        <mxCell id="Gh85WNM3P2DfNcLuEIeP-2" value="Docker Image Registry" style="text;html=1;strokeColor=none;fillColor=none;align=center;verticalAlign=middle;whiteSpace=wrap;rounded=0;fontStyle=1;fontSize=17;" vertex="1" parent="1">
          <mxGeometry x="290" y="30" width="220" height="40" as="geometry" />
        </mxCell>
        <mxCell id="Gh85WNM3P2DfNcLuEIeP-5" value="public&lt;br&gt;hub.docker.com" style="text;html=1;strokeColor=none;fillColor=none;align=center;verticalAlign=middle;whiteSpace=wrap;rounded=0;fontStyle=1;fontSize=17;" vertex="1" parent="1">
          <mxGeometry x="40" y="180" width="306" height="50" as="geometry" />
        </mxCell>
        <mxCell id="Gh85WNM3P2DfNcLuEIeP-7" value="" style="rounded=0;whiteSpace=wrap;html=1;" vertex="1" parent="1">
          <mxGeometry x="520" y="240" width="210" height="90" as="geometry" />
        </mxCell>
        <mxCell id="Gh85WNM3P2DfNcLuEIeP-8" value="private&lt;br&gt;(jfrog)" style="text;html=1;strokeColor=none;fillColor=none;align=center;verticalAlign=middle;whiteSpace=wrap;rounded=0;fontStyle=1;fontSize=17;" vertex="1" parent="1">
          <mxGeometry x="500" y="180" width="250" height="40" as="geometry" />
        </mxCell>
        <mxCell id="Gh85WNM3P2DfNcLuEIeP-11" value="httpd" style="rounded=0;whiteSpace=wrap;html=1;fillColor=#ffe6cc;strokeColor=#d79b00;" vertex="1" parent="1">
          <mxGeometry x="70" y="257.5" width="60" height="55" as="geometry" />
        </mxCell>
        <mxCell id="Gh85WNM3P2DfNcLuEIeP-12" value="nginx" style="rounded=0;whiteSpace=wrap;html=1;fillColor=#ffe6cc;strokeColor=#d79b00;" vertex="1" parent="1">
          <mxGeometry x="163" y="257.5" width="60" height="55" as="geometry" />
        </mxCell>
        <mxCell id="Gh85WNM3P2DfNcLuEIeP-13" value="node" style="rounded=0;whiteSpace=wrap;html=1;fillColor=#ffe6cc;strokeColor=#d79b00;" vertex="1" parent="1">
          <mxGeometry x="260" y="257.5" width="60" height="55" as="geometry" />
        </mxCell>
        <mxCell id="Gh85WNM3P2DfNcLuEIeP-16" value="app1" style="rounded=0;whiteSpace=wrap;html=1;fillColor=#ffe6cc;strokeColor=#d79b00;" vertex="1" parent="1">
          <mxGeometry x="550" y="255" width="60" height="55" as="geometry" />
        </mxCell>
        <mxCell id="Gh85WNM3P2DfNcLuEIeP-17" value="app2" style="rounded=0;whiteSpace=wrap;html=1;fillColor=#ffe6cc;strokeColor=#d79b00;" vertex="1" parent="1">
          <mxGeometry x="650" y="250" width="60" height="55" as="geometry" />
        </mxCell>
        <mxCell id="Gh85WNM3P2DfNcLuEIeP-18" value="httpd" style="rounded=0;whiteSpace=wrap;html=1;fillColor=#ffe6cc;strokeColor=#d79b00;" vertex="1" parent="1">
          <mxGeometry x="60" y="267.5" width="60" height="55" as="geometry" />
        </mxCell>
        <mxCell id="Gh85WNM3P2DfNcLuEIeP-19" value="nginx" style="rounded=0;whiteSpace=wrap;html=1;fillColor=#ffe6cc;strokeColor=#d79b00;" vertex="1" parent="1">
          <mxGeometry x="150" y="267.5" width="60" height="55" as="geometry" />
        </mxCell>
        <mxCell id="Gh85WNM3P2DfNcLuEIeP-20" value="node" style="rounded=0;whiteSpace=wrap;html=1;fillColor=#ffe6cc;strokeColor=#d79b00;" vertex="1" parent="1">
          <mxGeometry x="250" y="267.5" width="60" height="55" as="geometry" />
        </mxCell>
        <mxCell id="Gh85WNM3P2DfNcLuEIeP-21" value="app1" style="rounded=0;whiteSpace=wrap;html=1;fillColor=#ffe6cc;strokeColor=#d79b00;" vertex="1" parent="1">
          <mxGeometry x="540" y="265" width="60" height="55" as="geometry" />
        </mxCell>
        <mxCell id="Gh85WNM3P2DfNcLuEIeP-22" value="app2" style="rounded=0;whiteSpace=wrap;html=1;fillColor=#ffe6cc;strokeColor=#d79b00;" vertex="1" parent="1">
          <mxGeometry x="640" y="260" width="60" height="55" as="geometry" />
        </mxCell>
        <mxCell id="Gh85WNM3P2DfNcLuEIeP-49" style="edgeStyle=orthogonalEdgeStyle;rounded=0;orthogonalLoop=1;jettySize=auto;html=1;entryX=0.418;entryY=1.03;entryDx=0;entryDy=0;exitX=0.669;exitY=-0.011;exitDx=0;exitDy=0;exitPerimeter=0;entryPerimeter=0;" edge="1" parent="1" source="Gh85WNM3P2DfNcLuEIeP-23" target="Gh85WNM3P2DfNcLuEIeP-1">
          <mxGeometry relative="1" as="geometry">
            <Array as="points">
              <mxPoint x="464" y="410" />
              <mxPoint x="168" y="410" />
            </Array>
          </mxGeometry>
        </mxCell>
        <mxCell id="Gh85WNM3P2DfNcLuEIeP-23" value="" style="rounded=0;whiteSpace=wrap;html=1;" vertex="1" parent="1">
          <mxGeometry x="270" y="440" width="290" height="180" as="geometry" />
        </mxCell>
        <mxCell id="Gh85WNM3P2DfNcLuEIeP-24" value="" style="rounded=0;whiteSpace=wrap;html=1;" vertex="1" parent="1">
          <mxGeometry x="380" y="620" width="70" height="30" as="geometry" />
        </mxCell>
        <mxCell id="Gh85WNM3P2DfNcLuEIeP-25" value="" style="rounded=0;whiteSpace=wrap;html=1;" vertex="1" parent="1">
          <mxGeometry x="360" y="650" width="110" height="20" as="geometry" />
        </mxCell>
        <mxCell id="Gh85WNM3P2DfNcLuEIeP-28" value="docker image pull" style="text;html=1;strokeColor=none;fillColor=none;align=center;verticalAlign=middle;whiteSpace=wrap;rounded=0;" vertex="1" parent="1">
          <mxGeometry x="223" y="350" width="150" height="30" as="geometry" />
        </mxCell>
        <mxCell id="Gh85WNM3P2DfNcLuEIeP-30" value="" style="rounded=0;whiteSpace=wrap;html=1;fillColor=#dae8fc;strokeColor=#6c8ebf;" vertex="1" parent="1">
          <mxGeometry x="290" y="460" width="250" height="60" as="geometry" />
        </mxCell>
        <mxCell id="Gh85WNM3P2DfNcLuEIeP-29" value="httpd" style="rounded=0;whiteSpace=wrap;html=1;fillColor=#ffe6cc;strokeColor=#d79b00;" vertex="1" parent="1">
          <mxGeometry x="306" y="470" width="40" height="40" as="geometry" />
        </mxCell>
        <mxCell id="Gh85WNM3P2DfNcLuEIeP-31" value="nginx" style="rounded=0;whiteSpace=wrap;html=1;fillColor=#ffe6cc;strokeColor=#d79b00;" vertex="1" parent="1">
          <mxGeometry x="360" y="470" width="40" height="40" as="geometry" />
        </mxCell>
        <mxCell id="Gh85WNM3P2DfNcLuEIeP-32" value="node" style="rounded=0;whiteSpace=wrap;html=1;fillColor=#ffe6cc;strokeColor=#d79b00;" vertex="1" parent="1">
          <mxGeometry x="410" y="470" width="40" height="40" as="geometry" />
        </mxCell>
        <mxCell id="Gh85WNM3P2DfNcLuEIeP-33" value="Operating System" style="rounded=0;whiteSpace=wrap;html=1;" vertex="1" parent="1">
          <mxGeometry x="270" y="590" width="290" height="30" as="geometry" />
        </mxCell>
        <mxCell id="Gh85WNM3P2DfNcLuEIeP-34" value="Docker" style="rounded=0;whiteSpace=wrap;html=1;" vertex="1" parent="1">
          <mxGeometry x="270" y="560" width="290" height="30" as="geometry" />
        </mxCell>
        <mxCell id="Gh85WNM3P2DfNcLuEIeP-35" value="react-app" style="rounded=0;whiteSpace=wrap;html=1;fillColor=#e1d5e7;strokeColor=#9673a6;" vertex="1" parent="1">
          <mxGeometry x="460" y="470" width="70" height="40" as="geometry" />
        </mxCell>
        <mxCell id="Gh85WNM3P2DfNcLuEIeP-36" value="Developer Environment" style="text;html=1;strokeColor=none;fillColor=none;align=center;verticalAlign=middle;whiteSpace=wrap;rounded=0;fontStyle=1;fontSize=17;" vertex="1" parent="1">
          <mxGeometry x="305" y="670" width="220" height="40" as="geometry" />
        </mxCell>
        <mxCell id="Gh85WNM3P2DfNcLuEIeP-37" value="" style="rounded=0;whiteSpace=wrap;html=1;" vertex="1" parent="1">
          <mxGeometry x="620" y="440" width="290" height="180" as="geometry" />
        </mxCell>
        <mxCell id="Gh85WNM3P2DfNcLuEIeP-38" value="" style="rounded=0;whiteSpace=wrap;html=1;" vertex="1" parent="1">
          <mxGeometry x="730" y="620" width="70" height="30" as="geometry" />
        </mxCell>
        <mxCell id="Gh85WNM3P2DfNcLuEIeP-39" value="" style="rounded=0;whiteSpace=wrap;html=1;" vertex="1" parent="1">
          <mxGeometry x="710" y="650" width="110" height="20" as="geometry" />
        </mxCell>
        <mxCell id="Gh85WNM3P2DfNcLuEIeP-40" value="" style="rounded=0;whiteSpace=wrap;html=1;fillColor=#dae8fc;strokeColor=#6c8ebf;" vertex="1" parent="1">
          <mxGeometry x="630" y="450" width="270" height="30" as="geometry" />
        </mxCell>
        <mxCell id="Gh85WNM3P2DfNcLuEIeP-44" value="Operating System" style="rounded=0;whiteSpace=wrap;html=1;" vertex="1" parent="1">
          <mxGeometry x="620" y="590" width="290" height="30" as="geometry" />
        </mxCell>
        <mxCell id="Gh85WNM3P2DfNcLuEIeP-45" value="Docker" style="rounded=0;whiteSpace=wrap;html=1;" vertex="1" parent="1">
          <mxGeometry x="620" y="560" width="290" height="30" as="geometry" />
        </mxCell>
        <mxCell id="Gh85WNM3P2DfNcLuEIeP-47" value="minikube Environment" style="text;html=1;strokeColor=none;fillColor=none;align=center;verticalAlign=middle;whiteSpace=wrap;rounded=0;fontStyle=1;fontSize=17;" vertex="1" parent="1">
          <mxGeometry x="655" y="670" width="220" height="40" as="geometry" />
        </mxCell>
        <mxCell id="Gh85WNM3P2DfNcLuEIeP-48" value="kubernetes" style="rounded=0;whiteSpace=wrap;html=1;" vertex="1" parent="1">
          <mxGeometry x="760" y="530" width="150" height="30" as="geometry" />
        </mxCell>
        <mxCell id="Gh85WNM3P2DfNcLuEIeP-50" value="docker image push" style="text;html=1;strokeColor=none;fillColor=none;align=center;verticalAlign=middle;whiteSpace=wrap;rounded=0;" vertex="1" parent="1">
          <mxGeometry x="223" y="380" width="150" height="30" as="geometry" />
        </mxCell>
        <mxCell id="Gh85WNM3P2DfNcLuEIeP-52" value="docker image pull" style="text;html=1;strokeColor=none;fillColor=none;align=center;verticalAlign=middle;whiteSpace=wrap;rounded=0;" vertex="1" parent="1">
          <mxGeometry x="550" y="360" width="150" height="30" as="geometry" />
        </mxCell>
        <mxCell id="Gh85WNM3P2DfNcLuEIeP-53" value="react-app" style="rounded=0;whiteSpace=wrap;html=1;fillColor=#e1d5e7;strokeColor=#9673a6;" vertex="1" parent="1">
          <mxGeometry x="635" y="455" width="65" height="20" as="geometry" />
        </mxCell>
      </root>
    </mxGraphModel>
  </diagram>
  <diagram id="azQB9Sd4L9eD6TMis0FG" name="Page-3">
    <mxGraphModel dx="718" dy="473" grid="1" gridSize="10" guides="1" tooltips="1" connect="1" arrows="1" fold="1" page="1" pageScale="1" pageWidth="827" pageHeight="1169" math="0" shadow="0">
      <root>
        <mxCell id="0" />
        <mxCell id="1" parent="0" />
        <mxCell id="R27pjgZRuM2jVUrHsxQs-1" value="" style="rounded=0;whiteSpace=wrap;html=1;" vertex="1" parent="1">
          <mxGeometry x="110" y="160" width="290" height="210" as="geometry" />
        </mxCell>
        <mxCell id="R27pjgZRuM2jVUrHsxQs-2" value="" style="rounded=0;whiteSpace=wrap;html=1;" vertex="1" parent="1">
          <mxGeometry x="220" y="370" width="70" height="30" as="geometry" />
        </mxCell>
        <mxCell id="R27pjgZRuM2jVUrHsxQs-3" value="" style="rounded=0;whiteSpace=wrap;html=1;" vertex="1" parent="1">
          <mxGeometry x="200" y="400" width="110" height="20" as="geometry" />
        </mxCell>
        <mxCell id="R27pjgZRuM2jVUrHsxQs-8" value="Operating System" style="rounded=0;whiteSpace=wrap;html=1;" vertex="1" parent="1">
          <mxGeometry x="110" y="340" width="290" height="30" as="geometry" />
        </mxCell>
        <mxCell id="R27pjgZRuM2jVUrHsxQs-9" value="Docker" style="rounded=0;whiteSpace=wrap;html=1;" vertex="1" parent="1">
          <mxGeometry x="110" y="310" width="290" height="30" as="geometry" />
        </mxCell>
        <mxCell id="R27pjgZRuM2jVUrHsxQs-11" value="Developer Environment" style="text;html=1;strokeColor=none;fillColor=none;align=center;verticalAlign=middle;whiteSpace=wrap;rounded=0;fontStyle=1;fontSize=17;" vertex="1" parent="1">
          <mxGeometry x="145" y="420" width="220" height="40" as="geometry" />
        </mxCell>
        <mxCell id="R27pjgZRuM2jVUrHsxQs-12" value="" style="rounded=0;whiteSpace=wrap;html=1;fillColor=#fff2cc;strokeColor=#d6b656;" vertex="1" parent="1">
          <mxGeometry x="130" y="190" width="150" height="80" as="geometry" />
        </mxCell>
        <mxCell id="R27pjgZRuM2jVUrHsxQs-13" value="mysql (container)" style="text;html=1;strokeColor=none;fillColor=none;align=center;verticalAlign=middle;whiteSpace=wrap;rounded=0;fontStyle=1;fontSize=11;" vertex="1" parent="1">
          <mxGeometry x="130" y="270" width="150" height="20" as="geometry" />
        </mxCell>
        <mxCell id="R27pjgZRuM2jVUrHsxQs-16" value="3306" style="ellipse;whiteSpace=wrap;html=1;fillColor=#d80073;fontColor=#ffffff;strokeColor=#A50040;" vertex="1" parent="1">
          <mxGeometry x="160" y="180" width="40" height="25" as="geometry" />
        </mxCell>
        <mxCell id="R27pjgZRuM2jVUrHsxQs-18" value="" style="rounded=0;whiteSpace=wrap;html=1;fillColor=#d5e8d4;strokeColor=#82b366;" vertex="1" parent="1">
          <mxGeometry x="310" y="190" width="70" height="80" as="geometry" />
        </mxCell>
        <mxCell id="R27pjgZRuM2jVUrHsxQs-17" value="" style="shape=cylinder3;whiteSpace=wrap;html=1;boundedLbl=1;backgroundOutline=1;size=6.000000000000057;" vertex="1" parent="1">
          <mxGeometry x="325" y="205" width="40" height="45" as="geometry" />
        </mxCell>
        <mxCell id="R27pjgZRuM2jVUrHsxQs-19" value="db-volume" style="text;html=1;strokeColor=none;fillColor=none;align=center;verticalAlign=middle;whiteSpace=wrap;rounded=0;fontStyle=1;fontSize=11;" vertex="1" parent="1">
          <mxGeometry x="315" y="270" width="60" height="20" as="geometry" />
        </mxCell>
        <mxCell id="R27pjgZRuM2jVUrHsxQs-24" style="edgeStyle=orthogonalEdgeStyle;rounded=0;orthogonalLoop=1;jettySize=auto;html=1;dashed=1;" edge="1" parent="1" source="R27pjgZRuM2jVUrHsxQs-21" target="R27pjgZRuM2jVUrHsxQs-17">
          <mxGeometry relative="1" as="geometry" />
        </mxCell>
        <mxCell id="R27pjgZRuM2jVUrHsxQs-21" value="" style="shape=cylinder3;whiteSpace=wrap;html=1;boundedLbl=1;backgroundOutline=1;size=3.000000000000057;" vertex="1" parent="1">
          <mxGeometry x="240" y="220" width="30" height="40" as="geometry" />
        </mxCell>
        <mxCell id="R27pjgZRuM2jVUrHsxQs-23" style="edgeStyle=orthogonalEdgeStyle;rounded=0;orthogonalLoop=1;jettySize=auto;html=1;entryX=0;entryY=0.5;entryDx=0;entryDy=0;entryPerimeter=0;" edge="1" parent="1" source="R27pjgZRuM2jVUrHsxQs-14" target="R27pjgZRuM2jVUrHsxQs-21">
          <mxGeometry relative="1" as="geometry" />
        </mxCell>
        <mxCell id="R27pjgZRuM2jVUrHsxQs-14" value="mysql-server" style="rounded=0;whiteSpace=wrap;html=1;fillColor=#dae8fc;strokeColor=#6c8ebf;" vertex="1" parent="1">
          <mxGeometry x="140" y="225" width="80" height="30" as="geometry" />
        </mxCell>
        <mxCell id="R27pjgZRuM2jVUrHsxQs-29" value="" style="group" vertex="1" connectable="0" parent="1">
          <mxGeometry x="330" y="225" width="30" height="10" as="geometry" />
        </mxCell>
        <mxCell id="R27pjgZRuM2jVUrHsxQs-25" value="" style="rounded=0;whiteSpace=wrap;html=1;" vertex="1" parent="R27pjgZRuM2jVUrHsxQs-29">
          <mxGeometry width="10" height="10" as="geometry" />
        </mxCell>
        <mxCell id="R27pjgZRuM2jVUrHsxQs-27" value="" style="rounded=0;whiteSpace=wrap;html=1;" vertex="1" parent="R27pjgZRuM2jVUrHsxQs-29">
          <mxGeometry x="10" width="10" height="10" as="geometry" />
        </mxCell>
        <mxCell id="R27pjgZRuM2jVUrHsxQs-28" value="" style="rounded=0;whiteSpace=wrap;html=1;" vertex="1" parent="R27pjgZRuM2jVUrHsxQs-29">
          <mxGeometry x="20" width="10" height="10" as="geometry" />
        </mxCell>
      </root>
    </mxGraphModel>
  </diagram>
</mxfile>
